<svg xmlns="http://www.w3.org/2000/svg" style="display:none">

  <!-- house -->
  <symbol id="ico-house" viewBox="0 0 24 24" fill="currentColor">
    <path d="M10 20v-6h4v6h5v-8h3L12 3 2 12h3v8z"/>
  </symbol>

  <!-- landmark (building/ministry) -->
  <symbol id="ico-landmark" viewBox="0 0 24 24" fill="currentColor">
    <path d="M12 2L2 7h2v2h1v9H4v2h16v-2h-1V9h1V7h2L12 2zm0 2.24L19.12 7H4.88L12 4.24zM7 9h2v9H7V9zm4 0h2v9h-2V9zm4 0h2v9h-2V9z"/>
  </symbol>

  <!-- file-pen (mutation) -->
  <symbol id="ico-file-pen" viewBox="0 0 24 24" fill="currentColor">
    <path d="M14 2H6a2 2 0 0 0-2 2v16a2 2 0 0 0 2 2h7l-1-1V18l5-5V4a2 2 0 0 0-2-2zm-1 16v2.5L15.5 18H13zm6.3-8.7l-1.6 1.6L15.1 8.3l1.6-1.6c.4-.4 1-.4 1.4 0l.8.8c.4.4.4 1 .4 1.8z"/>
  </symbol>

  <!-- map (khatian) -->
  <symbol id="ico-map" viewBox="0 0 24 24" fill="currentColor">
    <path d="M20.5 3l-.16.03L15 5.1 9 3 3.36 4.9a.5.5 0 0 0-.36.48V20.5c0 .28.22.5.5.5l.16-.03L9 18.9l6 2.1 5.64-1.9c.22-.08.36-.28.36-.5V3.5a.5.5 0 0 0-.5-.5zM15 19l-6-2.11V5l6 2.11V19z"/>
  </symbol>

  <!-- chart-pie (dashboard) -->
  <symbol id="ico-chart" viewBox="0 0 24 24" fill="currentColor">
    <path d="M11 2v20c-5.07-.5-9-4.79-9-10s3.93-9.5 9-10zm2.03 0v8.99H22c-.47-4.74-4.24-8.52-8.97-8.99zm0 11.01V22c4.74-.47 8.5-4.25 8.97-8.99h-8.97z"/>
  </symbol>

  <!-- user-shield (citizen login) -->
  <symbol id="ico-user-shield" viewBox="0 0 24 24" fill="currentColor">
    <path d="M12 1L3 5v6c0 5.55 3.84 10.74 9 12 5.16-1.26 9-6.45 9-12V5l-9-4zm0 4a3 3 0 1 1 0 6 3 3 0 0 1 0-6zm0 13c-2.67 0-8 1.34-8 4v1h16v-1c0-2.66-5.33-4-8-4z"/>
  </symbol>

  <!-- users (utoradhikar) -->
  <symbol id="ico-users" viewBox="0 0 24 24" fill="currentColor">
    <path d="M16 11c1.66 0 2.99-1.34 2.99-3S17.66 5 16 5c-1.66 0-3 1.34-3 3s1.34 3 3 3zm-8 0c1.66 0 2.99-1.34 2.99-3S9.66 5 8 5C6.34 5 5 6.34 5 8s1.34 3 3 3zm0 2c-2.33 0-7 1.17-7 3.5V19h14v-2.5c0-2.33-4.67-3.5-7-3.5zm8 0c-.29 0-.62.02-.97.05 1.16.84 1.97 1.97 1.97 3.45V19h6v-2.5c0-2.33-4.67-3.5-7-3.5z"/>
  </symbol>

  <!-- id-card (birth cert) -->
  <symbol id="ico-id-card" viewBox="0 0 24 24" fill="currentColor">
    <path d="M20 4H4c-1.1 0-2 .9-2 2v12c0 1.1.9 2 2 2h16c1.1 0 2-.9 2-2V6c0-1.1-.9-2-2-2zm-8 3c1.66 0 3 1.34 3 3s-1.34 3-3 3-3-1.34-3-3 1.34-3 3-3zm6 12H6v-1c0-2 4-3.1 6-3.1s6 1.1 6 3.1v1z"/>
  </symbol>

  <!-- sticky note (notepad) -->
  <symbol id="ico-note" viewBox="0 0 24 24" fill="currentColor">
    <path d="M19 3H5c-1.1 0-2 .9-2 2v14c0 1.1.9 2 2 2h14c1.1 0 2-.9 2-2V5c0-1.1-.9-2-2-2zm-5 14H7v-2h7v2zm3-4H7v-2h10v2zm0-4H7V7h10v2z"/>
  </symbol>

  <!-- calculator -->
  <symbol id="ico-calculator" viewBox="0 0 24 24" fill="currentColor">
    <path d="M19 3H5c-1.1 0-2 .9-2 2v14c0 1.1.9 2 2 2h14c1.1 0 2-.9 2-2V5c0-1.1-.9-2-2-2zm-5.5 13.5h-3v-1.5h3v1.5zm0-3h-3v-1.5h3V13zm0-3h-3V8.5h3V10zM17 16.5h-1.5V15H17v1.5zm0-3h-1.5V12H17v1.5zm0-3h-1.5V9H17v1.5zM8.5 16.5H7V8.5h1.5v8z"/>
  </symbol>

  <!-- file-lines (report editor) -->
  <symbol id="ico-file" viewBox="0 0 24 24" fill="currentColor">
    <path d="M14 2H6a2 2 0 0 0-2 2v16a2 2 0 0 0 2 2h12a2 2 0 0 0 2-2V8l-6-6zm4 18H6V4h7v5h5v11zm-9-7h6v2H9v-2zm0-4h6v2H9V9z"/>
  </symbol>

  <!-- grid (more) -->
  <symbol id="ico-grid" viewBox="0 0 24 24" fill="currentColor">
    <path d="M3 3h8v8H3V3zm0 10h8v8H3v-8zm10-10h8v8h-8V3zm0 10h8v8h-8v-8z"/>
  </symbol>

  <!-- envelope -->
  <symbol id="ico-envelope" viewBox="0 0 24 24" fill="currentColor">
    <path d="M20 4H4c-1.1 0-2 .9-2 2v12c0 1.1.9 2 2 2h16c1.1 0 2-.9 2-2V6c0-1.1-.9-2-2-2zm0 4-8 5-8-5V6l8 5 8-5v2z"/>
  </symbol>

  <!-- google drive -->
  <symbol id="ico-drive" viewBox="0 0 24 24" fill="currentColor">
    <path d="M7.71 3.5L1.15 15l3.75 6.5L11.46 10 7.71 3.5zm.58 0h7.5l3.75 6.5H8.29L8.29 3.5zm11.56 11.5-3.75 6.5H4.9l3.75-6.5h11.2z"/>
  </symbol>

  <!-- wand/sparkle (ai) -->
  <symbol id="ico-ai" viewBox="0 0 24 24" fill="currentColor">
    <path d="m19 3 1.5 3L24 7.5 20.5 9 19 12l-1.5-3L14 7.5 17.5 6 19 3zM7 5l2 4 4 2-4 2-2 4-2-4-4-2 4-2 2-4zm8 12 1 2 2 1-2 1-1 2-1-2-2-1 2-1 1-2z"/>
  </symbol>

  <!-- calendar -->
  <symbol id="ico-calendar" viewBox="0 0 24 24" fill="currentColor">
    <path d="M17 12h-5v5h5v-5zM16 1v2H8V1H6v2H5c-1.11 0-2 .9-2 2v14c0 1.1.89 2 2 2h14c1.1 0 2-.9 2-2V5c0-1.1-.9-2-2-2h-1V1h-2zm3 18H5V8h14v11z"/>
  </symbol>

  <!-- briefcase -->
  <symbol id="ico-briefcase" viewBox="0 0 24 24" fill="currentColor">
    <path d="M20 6h-2.18c.07-.44.18-.86.18-1a3 3 0 0 0-6 0c0 .14.11.56.18 1H10c-1.1 0-2 .9-2 2v11c0 1.1.9 2 2 2h10c1.1 0 2-.9 2-2V8c0-1.1-.9-2-2-2zm-8-1a1 1 0 0 1 2 0c0 .14-.11.56-.18 1h-1.64C12.11 5.56 12 5.14 12 5zm6 14H10V8h10v11z"/>
  </symbol>

  <!-- book (dolil seba) -->
  <symbol id="ico-book" viewBox="0 0 24 24" fill="currentColor">
    <path d="M18 2H6c-1.1 0-2 .9-2 2v16c0 1.1.9 2 2 2h12c1.1 0 2-.9 2-2V4c0-1.1-.9-2-2-2zM6 4h5v8l-2.5-1.5L6 12V4zm0 16V14l2.5-1.5L11 14v6H6zm6 0h-1v-5h8v3.5c0 .83-.67 1.5-1.5 1.5H12z"/>
  </symbol>

  <!-- id/nid -->
  <symbol id="ico-nid" viewBox="0 0 24 24" fill="currentColor">
    <path d="M21 4H3a2 2 0 0 0-2 2v13a2 2 0 0 0 2 2h18a2 2 0 0 0 2-2V6a2 2 0 0 0-2-2zM3 6h18v2H3V6zm0 13v-9h18v9H3zm4-7h4v2H7v-2zm0 4h4v2H7v-2zm6-4h4v2h-4v-2zm0 4h4v2h-4v-2z"/>
  </symbol>

  <!-- printer -->
  <symbol id="ico-printer" viewBox="0 0 24 24" fill="currentColor">
    <path d="M19 8H5c-1.66 0-3 1.34-3 3v6h4v4h12v-4h4v-6c0-1.66-1.34-3-3-3zm-3 11H8v-5h8v5zm3-7c-.55 0-1-.45-1-1s.45-1 1-1 1 .45 1 1-.45 1-1 1zm-1-9H6v4h12V3z"/>
  </symbol>

  <!-- robot -->
  <symbol id="ico-robot" viewBox="0 0 24 24" fill="currentColor">
    <path d="M12 2a2 2 0 0 1 2 2c0 .74-.4 1.39-1 1.73V7h1a7 7 0 0 1 7 7H4a7 7 0 0 1 7-7h1V5.73c-.6-.34-1-.99-1-1.73a2 2 0 0 1 2-2zM7 15v6h2v-6H7zm8 0v6h2v-6h-2zm-4 0v6h2v-6h-2zM5 14v2h14v-2H5z"/>
  </symbol>

  <!-- globe -->
  <symbol id="ico-globe" viewBox="0 0 24 24" fill="currentColor">
    <path d="M12 2C6.48 2 2 6.48 2 12s4.48 10 10 10 10-4.48 10-10S17.52 2 12 2zm-1 17.93c-3.95-.49-7-3.85-7-7.93 0-.62.08-1.21.21-1.79L9 15v1c0 1.1.9 2 2 2v1.93zm6.9-2.54c-.26-.81-1-1.39-1.9-1.39h-1v-3c0-.55-.45-1-1-1H8v-2h2c.55 0 1-.45 1-1V7h2c1.1 0 2-.9 2-2v-.41c2.93 1.19 5 4.06 5 7.41 0 2.08-.8 3.97-2.1 5.39z"/>
  </symbol>

  <!-- bars (menu) -->
  <symbol id="ico-bars" viewBox="0 0 24 24" fill="currentColor">
    <path d="M3 18h18v-2H3v2zm0-5h18v-2H3v2zm0-7v2h18V6H3z"/>
  </symbol>

  <!-- calendar-day -->
  <symbol id="ico-cal-day" viewBox="0 0 24 24" fill="currentColor">
    <path d="M20 3h-1V1h-2v2H7V1H5v2H4c-1.1 0-2 .9-2 2v16c0 1.1.9 2 2 2h16c1.1 0 2-.9 2-2V5c0-1.1-.9-2-2-2zm0 18H4V8h16v13z"/>
  </symbol>

  <!-- clock -->
  <symbol id="ico-clock" viewBox="0 0 24 24" fill="currentColor">
    <path d="M11.99 2C6.47 2 2 6.48 2 12s4.47 10 9.99 10C17.52 22 22 17.52 22 12S17.52 2 11.99 2zm.01 18c-4.42 0-8-3.58-8-8s3.58-8 8-8 8 3.58 8 8-3.58 8-8 8zm.5-13H11v6l5.25 3.15.75-1.23-4.5-2.67V7z"/>
  </symbol>

  <!-- download -->
  <symbol id="ico-download" viewBox="0 0 24 24" fill="currentColor">
    <path d="M19 9h-4V3H9v6H5l7 7 7-7zM5 18v2h14v-2H5z"/>
  </symbol>

  <!-- bullhorn/megaphone -->
  <symbol id="ico-megaphone" viewBox="0 0 24 24" fill="currentColor">
    <path d="M13 2.05V4.06c3.39.49 6 3.39 6 6.94s-2.61 6.45-6 6.94v2.01c4.49-.5 8-4.32 8-8.95s-3.51-8.45-8-8.95zM8.59 16.59L4 12l4.59-4.59L10 8.83 6.83 12 10 15.17l-1.41 1.42zM3 11v2h8v-2H3zm7.41-5.17L10 8.83 8.59 7.41z"/>
  </symbol>

  <!-- check-circle -->
  <symbol id="ico-check" viewBox="0 0 24 24" fill="currentColor">
    <path d="M12 2C6.48 2 2 6.48 2 12s4.48 10 10 10 10-4.48 10-10S17.52 2 12 2zm-2 15-5-5 1.41-1.41L10 14.17l7.59-7.59L19 8l-9 9z"/>
  </symbol>

  <!-- list/tasks -->
  <symbol id="ico-tasks" viewBox="0 0 24 24" fill="currentColor">
    <path d="M3 13h2v-2H3v2zm0 4h2v-2H3v2zm0-8h2V7H3v2zm4 4h14v-2H7v2zm0 4h14v-2H7v2zM7 7v2h14V7H7z"/>
  </symbol>

  <!-- xmark/close -->
  <symbol id="ico-close" viewBox="0 0 24 24" fill="currentColor">
    <path d="M19 6.41 17.59 5 12 10.59 6.41 5 5 6.41 10.59 12 5 17.59 6.41 19 12 13.41 17.59 19 19 17.59 13.41 12z"/>
  </symbol>

  <!-- trash -->
  <symbol id="ico-trash" viewBox="0 0 24 24" fill="currentColor">
    <path d="M16 9v10H8V9h8m-1.5-6h-5l-1 1H5v2h14V4h-3.5l-1-1zM18 7H6v12c0 1.1.9 2 2 2h8c1.1 0 2-.9 2-2V7z"/>
  </symbol>

  <!-- plus -->
  <symbol id="ico-plus" viewBox="0 0 24 24" fill="currentColor">
    <path d="M19 13h-6v6h-2v-6H5v-2h6V5h2v6h6v2z"/>
  </symbol>

  <!-- chevron-down -->
  <symbol id="ico-chevron-down" viewBox="0 0 24 24" fill="currentColor">
    <path d="M7.41 8.59 12 13.17l4.59-4.58L18 10l-6 6-6-6 1.41-1.41z"/>
  </symbol>

  <!-- chevron-right -->
  <symbol id="ico-chevron-right" viewBox="0 0 24 24" fill="currentColor">
    <path d="M10 6 8.59 7.41 13.17 12l-4.58 4.59L10 18l6-6z"/>
  </symbol>

  <!-- external link -->
  <symbol id="ico-external" viewBox="0 0 24 24" fill="currentColor">
    <path d="M19 19H5V5h7V3H5a2 2 0 0 0-2 2v14a2 2 0 0 0 2 2h14a2 2 0 0 0 2-2v-7h-2v7zM14 3v2h3.59l-9.83 9.83 1.41 1.41L19 6.41V10h2V3h-7z"/>
  </symbol>

  <!-- location marker -->
  <symbol id="ico-location" viewBox="0 0 24 24" fill="currentColor">
    <path d="M12 2C8.13 2 5 5.13 5 9c0 5.25 7 13 7 13s7-7.75 7-13c0-3.87-3.13-7-7-7zm0 9.5a2.5 2.5 0 0 1 0-5 2.5 2.5 0 0 1 0 5z"/>
  </symbol>

  <!-- moon (hijri) -->
  <symbol id="ico-moon" viewBox="0 0 24 24" fill="currentColor">
    <path d="M12 3a9 9 0 1 0 9 9c0-.46-.04-.92-.1-1.36a5.389 5.389 0 0 1-4.4 2.26 5.403 5.403 0 0 1-3.14-9.8c-.44-.06-.9-.1-1.36-.1z"/>
  </symbol>

  <!-- sun (bangla calendar) -->
  <symbol id="ico-sun" viewBox="0 0 24 24" fill="currentColor">
    <path d="M6.76 4.84l-1.8-1.79-1.41 1.41 1.79 1.79zM1 10.5h3v2H1v-2zm9-9.95h2V3.5h-2V.55zm7.45 3.91l1.79-1.79-1.41-1.41-1.79 1.79 1.41 1.41zM17.5 10.5h3v2h-3v-2zm-3.95-5.5a6 6 0 1 0 0 12 6 6 0 0 0 0-12zm-1 17.45h2V19.5h-2v2.95zm-7.1-.49 1.41 1.41 1.79-1.8-1.41-1.41-1.79 1.8z"/>
  </symbol>

  <!-- facebook -->
  <symbol id="ico-facebook" viewBox="0 0 24 24" fill="currentColor">
    <path d="M18 2h-3a5 5 0 0 0-5 5v3H7v4h3v8h4v-8h3l1-4h-4V7a1 1 0 0 1 1-1h3z"/>
  </symbol>

  <!-- youtube -->
  <symbol id="ico-youtube" viewBox="0 0 24 24" fill="currentColor">
    <path d="M21.58 7.19a2.76 2.76 0 0 0-1.94-1.95C18 5 12 5 12 5s-6 0-7.64.24a2.76 2.76 0 0 0-1.94 1.95A29 29 0 0 0 2 12a29 29 0 0 0 .42 4.81 2.76 2.76 0 0 0 1.94 1.95C6 19 12 19 12 19s6 0 7.64-.24a2.76 2.76 0 0 0 1.94-1.95A29 29 0 0 0 22 12a29 29 0 0 0-.42-4.81zM10 15V9l5.19 3L10 15z"/>
  </symbol>

  <!-- whatsapp -->
  <symbol id="ico-whatsapp" viewBox="0 0 24 24" fill="currentColor">
    <path d="M17.47 14.38c-.3-.15-1.77-.87-2.04-.97s-.47-.15-.67.15-.77.97-.95 1.17-.35.23-.65.08a8.22 8.22 0 0 1-4.1-3.59c-.31-.53.31-.49.89-1.63.1-.2.05-.37-.03-.52s-.67-1.62-.92-2.21c-.24-.58-.49-.5-.67-.51h-.57a1.1 1.1 0 0 0-.8.38 3.36 3.36 0 0 0-1.05 2.5 5.84 5.84 0 0 0 1.22 3.1c.15.2 2.1 3.2 5.09 4.49.71.31 1.27.49 1.7.63.72.23 1.37.2 1.88.12.57-.09 1.77-.73 2.02-1.43s.25-1.3.18-1.43-.27-.2-.57-.35zM12.05 2a10 10 0 0 0-8.5 15.29L2 22l4.85-1.27A10 10 0 1 0 12.05 2z"/>
  </symbol>

  <!-- city/building2 -->
  <symbol id="ico-city" viewBox="0 0 24 24" fill="currentColor">
    <path d="M15 11V5l-3-3-3 3v2H3v14h18V11h-6zm-8 8H5v-2h2v2zm0-4H5v-2h2v2zm0-4H5v-2h2v2zm6 8h-2v-2h2v2zm0-4h-2v-2h2v2zm0-4h-2v-2h2v2zm0-4h-2V7h2v2zm6 12h-2v-2h2v2zm0-4h-2v-2h2v2z"/>
  </symbol>

  <!-- university/union parishad -->
  <symbol id="ico-university" viewBox="0 0 24 24" fill="currentColor">
    <path d="M12 3L2 8v2h20V8L12 3zm7 7v8h2v2H3v-2h2V10h2v8h2V10h2v8h2V10h2v8h2V10h2zM12 5.25 18.16 9H5.84L12 5.25z"/>
  </symbol>

</svg>
